<?xml version="1.0" encoding="UTF-8"?>
<svg width="100px" height="100px" viewBox="0 0 100 100" version="1.1" xmlns="http://www.w3.org/2000/svg" xmlns:xlink="http://www.w3.org/1999/xlink">
    <!-- Generator: Sketch 51.3 (57544) - http://www.bohemiancoding.com/sketch -->
    <title>Group 7</title>
    <desc>Created with Sketch.</desc>
    <defs></defs>
    <g id="Page-1" stroke="none" stroke-width="1" fill="none" fill-rule="evenodd">
        <g id="Desktop-HD" transform="translate(-517.000000, -529.000000)">
            <g id="Group-7" transform="translate(517.000000, 529.000000)">
                <circle id="Oval-2" fill="#C6C6C6" cx="50" cy="50" r="50"></circle>
                <g id="key-(1)" transform="translate(22.000000, 31.000000)" fill="#003769" fill-rule="nonzero">
                    <path d="M53.9064254,26.722832 C50.7031859,28.482627 46.2974873,30.109918 41.9036704,30.7957746 C37.9945944,31.4060287 30.6404704,29.934418 30.6404704,28.1962008 C30.6404704,27.5375164 37.090462,29.8191762 40.991831,28.7827992 C43.9836085,27.9882541 43.5589183,25.2024713 41.9316085,24.8350082 C40.3137718,24.4694631 30.8352338,21.0126885 26.7866282,20.8934508 C24.8796169,20.8371885 20.1710958,21.5537336 17.8925408,21.9232746 C17.1120423,22.0497049 16.6226451,22.0356393 16.5738338,22.7791967 C16.3471183,26.2346926 15.9002704,33.3015246 15.6565352,36.9927787 C15.6515577,37.0707787 15.7602592,38.1197828 16.630031,37.3815 C17.5816901,36.5738484 18.9164535,35.6782869 20.1510254,35.957041 C22.0879014,36.3946721 38.8444563,39.4505779 41.1557662,38.9156066 C44.4624085,38.150791 53.8222901,32.6286148 55.616907,30.9122951 C58.3986676,28.2515041 56.2365211,25.4425451 53.9064254,26.722832 Z" id="Shape"></path>
                    <path d="M11.9500901,21.7885328 L3.17176901,21.3580943 C2.49403099,21.3246885 1.80184225,21.8332869 1.63341127,22.4874959 L0.0374112676,36.9133402 C-0.131019718,37.567709 0.286123944,38.1245779 0.964183099,38.150791 L10.6927183,38.149832 C11.370938,38.1757254 11.9679127,37.6460287 12.0199352,36.9726393 L13.0881634,23.0734549 C13.1398648,22.4000656 12.6278282,21.8216189 11.9500901,21.7885328 Z M6.78235775,36.2383525 C5.44181408,36.2383525 4.35528169,35.156582 4.35528169,33.8224303 C4.35528169,32.4877992 5.44197465,31.4061885 6.78235775,31.4061885 C8.12290141,31.4061885 9.2094338,32.487959 9.2094338,33.8224303 C9.2094338,35.1567418 8.12274085,36.2383525 6.78235775,36.2383525 Z" id="Shape"></path>
                    <path d="M52.0069606,14.7779631 L52.6307493,12.6903443 C53.01,11.4214057 52.284093,10.0864549 51.0090592,9.7087623 C49.7343465,9.33138934 48.3931606,10.0540082 48.0139099,11.3231066 L47.4015211,13.3725246 C47.4015211,13.3725246 47.3066282,13.8651393 46.7489915,13.7000287 C46.3665296,13.5867049 45.2196254,13.2470533 45.2196254,13.2470533 C45.2196254,13.2470533 44.6982761,13.1655369 44.8517746,12.6519836 C45.0759211,11.901873 45.7485211,9.65170082 45.7485211,9.65170082 C46.1277718,8.3827623 45.4018648,7.0474918 44.126831,6.67011885 C42.8519577,6.29242623 41.5109324,7.01504508 41.1315211,8.28446311 C41.1315211,8.28446311 40.4590817,10.5346352 40.2349352,11.2845861 C40.0783859,11.8080492 39.5610507,11.5714918 39.5610507,11.5714918 L32.8053465,9.57066393 C32.3308817,9.42984836 32.3230141,8.71378279 32.2889746,8.36102459 C31.9428,4.77494262 29.4656282,1.5777418 25.7896901,0.488778689 C20.9527183,-0.943831967 15.8466423,1.80806557 14.4075127,6.62312705 C12.9685437,11.4381885 15.7329634,16.5211352 20.5699352,17.9537459 C24.4135014,19.0919385 28.4251775,17.5869221 30.6335662,14.505123 C30.7453183,14.3489631 30.970107,14.0299303 31.4318873,14.16675 L50.5011972,19.813918 C51.7760704,20.1916107 53.1170958,19.4689918 53.496507,18.1995738 C53.8071972,17.1593607 53.3754423,16.074873 52.5074366,15.5095328 C52.3168479,15.3853402 51.9037183,15.1225697 52.0069606,14.7779631 Z M21.485307,14.8893689 C18.3454901,13.9594426 16.5510338,10.6602664 17.4851915,7.53435246 C18.4193493,4.4087582 21.7338592,2.62259016 24.8736761,3.55251639 C28.013493,4.48244262 29.8077887,7.78161885 28.873631,10.9075328 C27.9393127,14.033127 24.6251239,15.8192951 21.485307,14.8893689 Z" id="Shape"></path>
                </g>
            </g>
        </g>
    </g>
</svg>