<?xml version="1.0" encoding="UTF-8"?>
<svg width="300px" height="300px" viewBox="0 0 300 300" version="1.1" xmlns="http://www.w3.org/2000/svg" xmlns:xlink="http://www.w3.org/1999/xlink">
    <!-- Generator: Sketch 51.3 (57544) - http://www.bohemiancoding.com/sketch -->
    <title>Artboard 4</title>
    <desc>Created with Sketch.</desc>
    <defs>
        <rect id="path-1" x="0" y="0" width="95.04" height="88.5433846"></rect>
    </defs>
    <g id="Artboard-4" stroke="none" stroke-width="1" fill="none" fill-rule="evenodd">
        <g id="Group-4" transform="translate(24.000000, 58.000000)">
            <text id="Pasval" font-family="HelveticaNeue-Medium, Helvetica Neue" font-size="55.296" font-weight="400" line-spacing="60.48" letter-spacing="0.0864000022" fill="#FFFFFF">
                <tspan x="87.84" y="108.72">Pasval</tspan>
            </text>
            <g id="Group-3">
                <g id="Group">
                    <g id="iconfinder_electronic_37_4658140">
                        <mask id="mask-2" fill="white">
                            <use xlink:href="#path-1"></use>
                        </mask>
                        <g id="Mask"></g>
                        <g mask="url(#mask-2)" fill="#FFFFFF" fill-rule="nonzero" id="Shape">
                            <g transform="translate(4.873846, 6.064615)">
                                <path d="M42.0369231,114.014769 L39.8588209,114.014769 C27.8852295,112.595355 18.9268476,102.40898 19.1095313,90.4212183 L19.1095313,76.8197831 C3.51267716,66.7277862 -3.55374932,47.6405485 1.74013516,29.9030291 C7.03401964,12.1655096 23.4280432,3.37444168e-15 42.0369231,0 C60.645803,-3.37444168e-15 77.0398265,12.1655096 82.333711,29.9030291 C87.6275955,47.6405485 80.561169,66.7277862 64.9643148,76.8197831 L64.9643148,91.2190678 C64.9643148,103.808786 54.6993719,114.014769 42.0369231,114.014769 Z M42.0369231,7.63482924 C40.7600092,7.64322859 39.4844543,7.7193223 38.2156911,7.86278626 C23.8008549,9.53399476 11.9925265,20.0219903 8.70298034,34.0755719 C5.41343414,48.1291534 11.3507373,62.7233201 23.5421604,70.5509652 C25.5513289,71.8774875 26.7569415,74.1178921 26.7519952,76.5158404 L26.7519952,90.3832254 C26.5441972,98.4370377 32.4765473,105.351128 40.5084303,106.416202 C44.8198494,106.847082 49.1126029,105.438279 52.3188703,102.540232 C55.5251378,99.6421856 57.3435766,95.5272697 57.3218509,91.2190678 L57.3218509,76.5158404 C57.335105,74.0941533 58.5881115,71.8459683 60.6463227,70.5509652 C73.4461216,62.3306368 79.2793107,46.7159753 74.9801844,32.1811478 C70.6810582,17.6463204 57.2747427,7.65715484 42.0369231,7.63482924 Z"></path>
                            </g>
                        </g>
                    </g>
                </g>
                <g id="iconfinder_weather_11_2682840" transform="translate(34.560000, 30.240000)" fill="#FFFFFF" fill-rule="nonzero">
                    <polygon id="Shape" points="0 26.496 9.3328 26.496 4.67146667 46.08 26.8128 18.432 16.3248 18.432 25.6474667 0 4.67146667 0"></polygon>
                </g>
                <g id="Group-2" transform="translate(25.920000, 91.584000)" fill="#FFFFFF">
                    <path d="M20.736,-5.68434189e-14 C20.2533983,-5.68434189e-14 20.0554963,0.924108399 20.1422941,2.7723252 C20.4356421,9.01869239 20.1422941,13.8935736 20.1422941,17.28 C20.1422941,21.059521 19.767062,27.0007212 20.1422941,34.3415106 C20.1490599,34.4738721 20.3469619,34.5467019 20.736,34.56 C23.9040834,34.0560857 26.1820155,33.2263687 27.5697964,32.0708491 C28.9575773,30.9153294 30.5434693,28.5278779 32.3274724,24.9084946 C34.8907417,23.6189333 36.6863933,22.4918019 37.714427,21.5271004 C38.7424608,20.5623988 39.9949851,18.7057321 41.472,15.9571002 L41.472,-5.68434189e-14 L20.736,-5.68434189e-14 Z" id="Path-2"></path>
                    <path d="M0,-5.68434189e-14 L0,34.56 C3.16808339,34.0560857 5.44601552,33.2263687 6.83379639,32.0708491 C8.22157726,30.9153294 9.80746925,28.5278779 11.5914724,24.9084946 C14.1547417,23.6189333 15.9503933,22.4918019 16.978427,21.5271004 C18.0064608,20.5623988 19.2589851,18.7057321 20.736,15.9571002 L20.736,-5.68434189e-14 L0,-5.68434189e-14 Z" id="Path-2" transform="translate(10.368000, 17.280000) scale(-1, 1) translate(-10.368000, -17.280000) "></path>
                </g>
            </g>
        </g>
    </g>
</svg>