<?xml version="1.0" encoding="UTF-8"?>
<svg width="173px" height="84px" viewBox="0 0 173 84" version="1.1" xmlns="http://www.w3.org/2000/svg" xmlns:xlink="http://www.w3.org/1999/xlink">
    <!-- Generator: Sketch 51.3 (57544) - http://www.bohemiancoding.com/sketch -->
    <title>Group 4</title>
    <desc>Created with Sketch.</desc>
    <defs>
        <rect id="path-1" x="0" y="0" width="66" height="61.4884615"></rect>
    </defs>
    <g id="Page-1" stroke="none" stroke-width="1" fill="none" fill-rule="evenodd">
        <g id="iPhone-X" transform="translate(-73.000000, -679.000000)">
            <g id="Group-4" transform="translate(70.000000, 675.000000)">
                <text id="Pasval" font-family="HelveticaNeue-Medium, Helvetica Neue" font-size="38.4" font-weight="400" line-spacing="42" letter-spacing="0.0600000009" fill="#104473">
                    <tspan x="61" y="75">Pasval</tspan>
                </text>
                <g id="Group-3">
                    <g id="Group">
                        <g id="iconfinder_electronic_37_4658140">
                            <mask id="mask-2" fill="white">
                                <use xlink:href="#path-1"></use>
                            </mask>
                            <g id="Mask"></g>
                            <g mask="url(#mask-2)" fill="#104473" fill-rule="nonzero" id="Shape">
                                <g transform="translate(3.384615, 4.211538)">
                                    <path d="M29.1923077,79.1769231 L27.6797367,79.1769231 C19.3647427,78.1912184 13.1436442,71.1173471 13.2705079,62.7925127 L13.2705079,53.3470716 C2.43935914,46.3387404 -2.46788147,33.0837143 1.2084272,20.7659924 C4.88473586,8.44827059 16.2694744,2.34336228e-15 29.1923077,0 C42.115141,-2.34336228e-15 53.4998795,8.44827059 57.1761882,20.7659924 C60.8524969,33.0837143 55.9452562,46.3387404 45.1141075,53.3470716 L45.1141075,63.3465749 C45.1141075,72.0894348 37.9856749,79.1769231 29.1923077,79.1769231 Z M29.1923077,5.30196475 C28.305562,5.30779763 27.4197599,5.36064049 26.5386744,5.46026823 C16.5283715,6.62082969 8.32814343,13.9041599 6.04373635,23.6635916 C3.75932926,33.4230232 7.88245645,43.5578612 16.3487225,48.9937258 C17.7439784,49.9149219 18.5812094,51.4707584 18.5777745,53.1360003 L18.5777745,62.7661288 C18.4334703,68.3590539 22.5531579,73.1605054 28.1308544,73.9001403 C31.1248954,74.1993624 34.1059742,73.221027 36.3325488,71.2084946 C38.5591234,69.1959622 39.8219282,66.3383817 39.8068409,63.3465749 L39.8068409,53.1360003 C39.8160452,51.4542731 40.6861886,49.8930336 42.1155019,48.9937258 C51.0042511,43.2851645 55.0550769,32.4416495 52.0695725,22.3480193 C49.0840682,12.2543891 39.7741269,5.31746864 29.1923077,5.30196475 Z"></path>
                                </g>
                            </g>
                        </g>
                    </g>
                    <g id="iconfinder_weather_11_2682840" transform="translate(24.000000, 21.000000)" fill="#104473" fill-rule="nonzero">
                        <polygon id="Shape" points="0 18.4 6.48111111 18.4 3.24407407 32 18.62 12.8 11.3366667 12.8 17.8107407 0 3.24407407 0"></polygon>
                    </g>
                    <g id="Group-2" transform="translate(18.000000, 63.600000)" fill="#104473">
                        <path d="M14.4,-5.68434189e-14 C14.0648599,-5.68434189e-14 13.927428,0.641741944 13.9877042,1.92522583 C14.1914181,6.26298083 13.9877042,9.64831503 13.9877042,12 C13.9877042,14.6246674 13.7271264,18.7505008 13.9877042,23.8482712 C13.9924027,23.940189 14.1298346,23.9907652 14.4,24 C16.6000579,23.6500595 18.1819552,23.0738672 19.1456919,22.271423 C20.1094287,21.4689787 21.2107425,19.8110263 22.4496336,17.2975657 C24.2296817,16.402037 25.476662,15.6193069 26.1905743,14.9493752 C26.9044866,14.2794436 27.7742952,12.9900918 28.8,11.0813196 L28.8,-5.68434189e-14 L14.4,-5.68434189e-14 Z" id="Path-2"></path>
                        <path d="M0,-5.68434189e-14 L0,24 C2.20005791,23.6500595 3.78195522,23.0738672 4.74569194,22.271423 C5.70942865,21.4689787 6.81074254,19.8110263 8.04963359,17.2975657 C9.82968174,16.402037 11.076662,15.6193069 11.7905743,14.9493752 C12.5044866,14.2794436 13.3742952,12.9900918 14.4,11.0813196 L14.4,-5.68434189e-14 L0,-5.68434189e-14 Z" id="Path-2" transform="translate(7.200000, 12.000000) scale(-1, 1) translate(-7.200000, -12.000000) "></path>
                    </g>
                </g>
            </g>
        </g>
    </g>
</svg>