<?xml version="1.0" encoding="UTF-8"?>
<svg width="288px" height="154px" viewBox="0 0 288 154" version="1.1" xmlns="http://www.w3.org/2000/svg" xmlns:xlink="http://www.w3.org/1999/xlink">
    <!-- Generator: Sketch 51.3 (57544) - http://www.bohemiancoding.com/sketch -->
    <title>Group 8</title>
    <desc>Created with Sketch.</desc>
    <defs>
        <rect id="path-1" x="0" y="0" width="350" height="200"></rect>
    </defs>
    <g id="Page-1" stroke="none" stroke-width="1" fill="none" fill-rule="evenodd">
        <g id="Desktop-HD" transform="translate(-219.000000, -521.000000)">
            <g id="Group-8" transform="translate(202.000000, 500.000000)">
                <mask id="mask-2" fill="white">
                    <use xlink:href="#path-1"></use>
                </mask>
                <g id="Mask"></g>
                <g mask="url(#mask-2)">
                    <g transform="translate(17.000000, 21.000000)">
                        <path d="M22.3808,132 L19.4072,132 L15.5264,120.0048 L18.2312,120.0048 L20.9024,128.4384 L20.936,128.4384 L23.6408,120.0048 L26.3624,120.0048 L22.3808,132 Z M27.4572,120.0048 L36.4284,120.0048 L36.4284,122.2224 L30.0948,122.2224 L30.0948,124.7928 L35.9076,124.7928 L35.9076,126.8424 L30.0948,126.8424 L30.0948,129.7824 L36.5628,129.7824 L36.5628,132 L27.4572,132 L27.4572,120.0048 Z M38.4136,120.0048 L41.0344,120.0048 L46.0408,128.052 L46.0744,128.052 L46.0744,120.0048 L48.544,120.0048 L48.544,132 L45.9064,132 L40.9168,123.9696 L40.8832,123.9696 L40.8832,132 L38.4136,132 L38.4136,120.0048 Z M53.5868,122.2224 L49.9916,122.2224 L49.9916,120.0048 L59.8196,120.0048 L59.8196,122.2224 L56.2244,122.2224 L56.2244,132 L53.5868,132 L53.5868,122.2224 Z M62.7456,127.3632 L65.8536,127.3632 L64.3416,122.9616 L64.308,122.9616 L62.7456,127.3632 Z M62.9976,120.0048 L65.7024,120.0048 L70.188,132 L67.4496,132 L66.5424,129.3288 L62.0568,129.3288 L61.116,132 L58.4616,132 L62.9976,120.0048 Z M78.6776,129.7824 L81.0296,129.7824 C81.4104019,129.7824 81.7799982,129.720801 82.1384,129.5976 C82.4968018,129.474399 82.8159986,129.270001 83.096,128.9844 C83.3760014,128.698799 83.5999992,128.326402 83.768,127.8672 C83.9360008,127.407998 84.02,126.848003 84.02,126.1872 C84.02,125.582397 83.9612006,125.036402 83.8436,124.5492 C83.7259994,124.061998 83.5328013,123.644802 83.264,123.2976 C82.9951986,122.950398 82.6396022,122.684401 82.1972,122.4996 C81.7547978,122.314799 81.2088032,122.2224 80.5592,122.2224 L78.6776,122.2224 L78.6776,129.7824 Z M76.04,120.0048 L81.2144,120.0048 C81.9872039,120.0048 82.7067967,120.127999 83.3732,120.3744 C84.0396033,120.620801 84.6163976,120.990398 85.1036,121.4832 C85.5908024,121.976002 85.9715986,122.591996 86.246,123.3312 C86.5204014,124.070404 86.6576,124.938395 86.6576,125.9352 C86.6576,126.808804 86.5456011,127.615196 86.3216,128.3544 C86.0975989,129.093604 85.7588023,129.731997 85.3052,130.2696 C84.8515977,130.807203 84.2860034,131.229998 83.6084,131.538 C82.9307966,131.846002 82.1328046,132 81.2144,132 L76.04,132 L76.04,120.0048 Z M88.5588,120.0048 L97.53,120.0048 L97.53,122.2224 L91.1964,122.2224 L91.1964,124.7928 L97.0092,124.7928 L97.0092,126.8424 L91.1964,126.8424 L91.1964,129.7824 L97.6644,129.7824 L97.6644,132 L88.5588,132 L88.5588,120.0048 Z M6.48660002,146.8496 L8.53620002,146.8496 C8.83860153,146.8496 9.12979862,146.8272 9.40980002,146.7824 C9.68980142,146.7376 9.93619895,146.650801 10.149,146.522 C10.3618011,146.393199 10.5325994,146.211201 10.6614,145.976 C10.7902007,145.740799 10.8546,145.432802 10.8546,145.052 C10.8546,144.671198 10.7902007,144.363201 10.6614,144.128 C10.5325994,143.892799 10.3618011,143.710801 10.149,143.582 C9.93619895,143.453199 9.68980142,143.3664 9.40980002,143.3216 C9.12979862,143.2768 8.83860153,143.2544 8.53620002,143.2544 L6.48660002,143.2544 L6.48660002,146.8496 Z M3.84900002,141.2048 L9.25860002,141.2048 C10.0090038,141.2048 10.6473974,141.313999 11.1738,141.5324 C11.7002027,141.750801 12.1285984,142.039198 12.459,142.3976 C12.7894017,142.756002 13.0301993,143.164798 13.1814,143.624 C13.3326008,144.083202 13.4082,144.559198 13.4082,145.052 C13.4082,145.533602 13.3326008,146.006798 13.1814,146.4716 C13.0301993,146.936402 12.7894017,147.347998 12.459,147.7064 C12.1285984,148.064802 11.7002027,148.353199 11.1738,148.5716 C10.6473974,148.790001 10.0090038,148.8992 9.25860002,148.8992 L6.48660002,148.8992 L6.48660002,153.2 L3.84900002,153.2 L3.84900002,141.2048 Z M17.7622,146.6312 L20.6518,146.6312 C21.256603,146.6312 21.7101985,146.496801 22.0126,146.228 C22.3150015,145.959199 22.4662,145.522403 22.4662,144.9176 C22.4662,144.335197 22.3150015,143.912401 22.0126,143.6492 C21.7101985,143.385999 21.256603,143.2544 20.6518,143.2544 L17.7622,143.2544 L17.7622,146.6312 Z M15.1246,141.2048 L21.5926,141.2048 C22.1302027,141.2048 22.6145979,141.291599 23.0458,141.4652 C23.4770022,141.638801 23.8465985,141.876798 24.1546,142.1792 C24.4626016,142.481602 24.6977992,142.831598 24.8602,143.2292 C25.0226008,143.626802 25.1038,144.055198 25.1038,144.5144 C25.1038,145.220004 24.9554015,145.830397 24.6586,146.3456 C24.3617985,146.860803 23.8774034,147.252799 23.2054,147.5216 L23.2054,147.5552 C23.5302016,147.6448 23.798999,147.781999 24.0118,147.9668 C24.2246011,148.151601 24.3981993,148.369999 24.5326,148.622 C24.6670007,148.874001 24.7649997,149.151198 24.8266,149.4536 C24.8882003,149.756002 24.9301999,150.058398 24.9526,150.3608 C24.9638001,150.551201 24.975,150.775199 24.9862,151.0328 C24.9974001,151.290401 25.0169999,151.553599 25.045,151.8224 C25.0730002,152.091201 25.1177997,152.345999 25.1794,152.5868 C25.2410003,152.827601 25.3333994,153.031999 25.4566,153.2 L22.819,153.2 C22.6733993,152.819198 22.5838002,152.365603 22.5502,151.8392 C22.5165998,151.312797 22.4662004,150.808802 22.399,150.3272 C22.3093996,149.699997 22.1190015,149.240801 21.8278,148.9496 C21.5365986,148.658399 21.0606033,148.5128 20.3998,148.5128 L17.7622,148.5128 L17.7622,153.2 L15.1246,153.2 L15.1246,141.2048 Z M29.441,147.2528 C29.441,147.756803 29.4997994,148.246798 29.6174,148.7228 C29.7350006,149.198802 29.9225987,149.627198 30.1802,150.008 C30.4378013,150.388802 30.7737979,150.693999 31.1882,150.9236 C31.6026021,151.153201 32.106597,151.268 32.7002,151.268 C33.293803,151.268 33.7977979,151.153201 34.2122,150.9236 C34.6266021,150.693999 34.9625987,150.388802 35.2202,150.008 C35.4778013,149.627198 35.6653994,149.198802 35.783,148.7228 C35.9006006,148.246798 35.9594,147.756803 35.9594,147.2528 C35.9594,146.726397 35.9006006,146.216802 35.783,145.724 C35.6653994,145.231198 35.4778013,144.791602 35.2202,144.4052 C34.9625987,144.018798 34.6266021,143.710801 34.2122,143.4812 C33.7977979,143.251599 33.293803,143.1368 32.7002,143.1368 C32.106597,143.1368 31.6026021,143.251599 31.1882,143.4812 C30.7737979,143.710801 30.4378013,144.018798 30.1802,144.4052 C29.9225987,144.791602 29.7350006,145.231198 29.6174,145.724 C29.4997994,146.216802 29.441,146.726397 29.441,147.2528 Z M26.8034,147.2528 C26.8034,146.356796 26.9377987,145.525204 27.2066,144.758 C27.4754014,143.990796 27.8617975,143.321603 28.3658,142.7504 C28.8698025,142.179197 29.4885963,141.731202 30.2222,141.4064 C30.9558037,141.081598 31.7817954,140.9192 32.7002,140.9192 C33.6298047,140.9192 34.4585964,141.081598 35.1866,141.4064 C35.9146037,141.731202 36.5305975,142.179197 37.0346,142.7504 C37.5386025,143.321603 37.9249987,143.990796 38.1938,144.758 C38.4626014,145.525204 38.597,146.356796 38.597,147.2528 C38.597,148.126404 38.4626014,148.941196 38.1938,149.6972 C37.9249987,150.453204 37.5386025,151.111197 37.0346,151.6712 C36.5305975,152.231203 35.9146037,152.670798 35.1866,152.99 C34.4585964,153.309202 33.6298047,153.4688 32.7002,153.4688 C31.7817954,153.4688 30.9558037,153.309202 30.2222,152.99 C29.4885963,152.670798 28.8698025,152.231203 28.3658,151.6712 C27.8617975,151.111197 27.4754014,150.453204 27.2066,149.6972 C26.9377987,148.941196 26.8034,148.126404 26.8034,147.2528 Z M43.1022,150.9824 L45.4542,150.9824 C45.8350019,150.9824 46.2045982,150.920801 46.563,150.7976 C46.9214018,150.674399 47.2405986,150.470001 47.5206,150.1844 C47.8006014,149.898799 48.0245992,149.526402 48.1926,149.0672 C48.3606008,148.607998 48.4446,148.048003 48.4446,147.3872 C48.4446,146.782397 48.3858006,146.236402 48.2682,145.7492 C48.1505994,145.261998 47.9574014,144.844802 47.6886,144.4976 C47.4197987,144.150398 47.0642022,143.884401 46.6218,143.6996 C46.1793978,143.514799 45.6334033,143.4224 44.9838,143.4224 L43.1022,143.4224 L43.1022,150.9824 Z M40.4646,141.2048 L45.639,141.2048 C46.4118039,141.2048 47.1313967,141.327999 47.7978,141.5744 C48.4642033,141.820801 49.0409976,142.190398 49.5282,142.6832 C50.0154024,143.176002 50.3961986,143.791996 50.6706,144.5312 C50.9450014,145.270404 51.0822,146.138395 51.0822,147.1352 C51.0822,148.008804 50.9702011,148.815196 50.7462,149.5544 C50.5221989,150.293604 50.1834023,150.931997 49.7298,151.4696 C49.2761977,152.007203 48.7106034,152.429998 48.033,152.738 C47.3553966,153.046002 46.5574046,153.2 45.639,153.2 L40.4646,153.2 L40.4646,141.2048 Z M63.1642,148.664 C63.1642,150.288008 62.7106045,151.494796 61.8034,152.2844 C60.8961955,153.074004 59.641808,153.4688 58.0402,153.4688 C56.4161919,153.4688 55.1590045,153.076804 54.2686,152.2928 C53.3781956,151.508796 52.933,150.299208 52.933,148.664 L52.933,141.2048 L55.5706,141.2048 L55.5706,148.664 C55.5706,148.988802 55.5985997,149.307998 55.6546,149.6216 C55.7106003,149.935202 55.8281991,150.212399 56.0074,150.4532 C56.1866009,150.694001 56.4357984,150.889999 56.755,151.0412 C57.0742016,151.192401 57.5025973,151.268 58.0402,151.268 C58.9810047,151.268 59.6305982,151.058002 59.989,150.638 C60.3474018,150.217998 60.5266,149.560004 60.5266,148.664 L60.5266,141.2048 L63.1642,141.2048 L63.1642,148.664 Z M73.499,145.2368 C73.4541998,144.934398 73.3534008,144.657201 73.1966,144.4052 C73.0397992,144.153199 72.8438012,143.932001 72.6086,143.7416 C72.3733988,143.551199 72.1074015,143.402801 71.8106,143.2964 C71.5137985,143.189999 71.2030016,143.1368 70.8782,143.1368 C70.284597,143.1368 69.7806021,143.251599 69.3662,143.4812 C68.9517979,143.710801 68.6158013,144.018798 68.3582,144.4052 C68.1005987,144.791602 67.9130006,145.231198 67.7954,145.724 C67.6777994,146.216802 67.619,146.726397 67.619,147.2528 C67.619,147.756803 67.6777994,148.246798 67.7954,148.7228 C67.9130006,149.198802 68.1005987,149.627198 68.3582,150.008 C68.6158013,150.388802 68.9517979,150.693999 69.3662,150.9236 C69.7806021,151.153201 70.284597,151.268 70.8782,151.268 C71.684604,151.268 72.3145977,151.021602 72.7682,150.5288 C73.2218023,150.035998 73.4989995,149.386404 73.5998,148.58 L76.1534,148.58 C76.0861997,149.330404 75.9126014,150.007997 75.6326,150.6128 C75.3525986,151.217603 74.9830023,151.732798 74.5238,152.1584 C74.0645977,152.584002 73.5270031,152.908799 72.911,153.1328 C72.2949969,153.356801 71.6174037,153.4688 70.8782,153.4688 C69.9597954,153.4688 69.1338037,153.309202 68.4002,152.99 C67.6665963,152.670798 67.0478025,152.231203 66.5438,151.6712 C66.0397975,151.111197 65.6534013,150.453204 65.3846,149.6972 C65.1157987,148.941196 64.9814,148.126404 64.9814,147.2528 C64.9814,146.356796 65.1157987,145.525204 65.3846,144.758 C65.6534013,143.990796 66.0397975,143.321603 66.5438,142.7504 C67.0478025,142.179197 67.6665963,141.731202 68.4002,141.4064 C69.1338037,141.081598 69.9597954,140.9192 70.8782,140.9192 C71.5390033,140.9192 72.1633971,141.014399 72.7514,141.2048 C73.3394029,141.395201 73.8657977,141.672398 74.3306,142.0364 C74.7954023,142.400402 75.1789985,142.851197 75.4814,143.3888 C75.7838015,143.926403 75.9741996,144.542397 76.0526,145.2368 L73.499,145.2368 Z M80.6754,143.4224 L77.0802,143.4224 L77.0802,141.2048 L86.9082,141.2048 L86.9082,143.4224 L83.313,143.4224 L83.313,153.2 L80.6754,153.2 L80.6754,143.4224 Z M90.4726,147.2528 C90.4726,147.756803 90.5313994,148.246798 90.649,148.7228 C90.7666006,149.198802 90.9541987,149.627198 91.2118,150.008 C91.4694013,150.388802 91.8053979,150.693999 92.2198,150.9236 C92.6342021,151.153201 93.138197,151.268 93.7318,151.268 C94.325403,151.268 94.8293979,151.153201 95.2438,150.9236 C95.6582021,150.693999 95.9941987,150.388802 96.2518,150.008 C96.5094013,149.627198 96.6969994,149.198802 96.8146,148.7228 C96.9322006,148.246798 96.991,147.756803 96.991,147.2528 C96.991,146.726397 96.9322006,146.216802 96.8146,145.724 C96.6969994,145.231198 96.5094013,144.791602 96.2518,144.4052 C95.9941987,144.018798 95.6582021,143.710801 95.2438,143.4812 C94.8293979,143.251599 94.325403,143.1368 93.7318,143.1368 C93.138197,143.1368 92.6342021,143.251599 92.2198,143.4812 C91.8053979,143.710801 91.4694013,144.018798 91.2118,144.4052 C90.9541987,144.791602 90.7666006,145.231198 90.649,145.724 C90.5313994,146.216802 90.4726,146.726397 90.4726,147.2528 Z M87.835,147.2528 C87.835,146.356796 87.9693986,145.525204 88.2382,144.758 C88.5070013,143.990796 88.8933975,143.321603 89.3974,142.7504 C89.9014025,142.179197 90.5201963,141.731202 91.2538,141.4064 C91.9874037,141.081598 92.8133954,140.9192 93.7318,140.9192 C94.6614046,140.9192 95.4901963,141.081598 96.2182,141.4064 C96.9462036,141.731202 97.5621975,142.179197 98.0662,142.7504 C98.5702025,143.321603 98.9565986,143.990796 99.2254,144.758 C99.4942013,145.525204 99.6286,146.356796 99.6286,147.2528 C99.6286,148.126404 99.4942013,148.941196 99.2254,149.6972 C98.9565986,150.453204 98.5702025,151.111197 98.0662,151.6712 C97.5621975,152.231203 96.9462036,152.670798 96.2182,152.99 C95.4901963,153.309202 94.6614046,153.4688 93.7318,153.4688 C92.8133954,153.4688 91.9874037,153.309202 91.2538,152.99 C90.5201963,152.670798 89.9014025,152.231203 89.3974,151.6712 C88.8933975,151.111197 88.5070013,150.453204 88.2382,149.6972 C87.9693986,148.941196 87.835,148.126404 87.835,147.2528 Z M103.2938,149.2184 C103.2938,149.621602 103.366599,149.963199 103.5122,150.2432 C103.657801,150.523201 103.850999,150.749999 104.0918,150.9236 C104.332601,151.097201 104.615398,151.226 104.9402,151.31 C105.265002,151.394 105.600998,151.436 105.9482,151.436 C106.183401,151.436 106.435399,151.4164 106.7042,151.3772 C106.973001,151.338 107.224999,151.262401 107.4602,151.1504 C107.695401,151.038399 107.891399,150.884401 108.0482,150.6884 C108.205001,150.492399 108.2834,150.243202 108.2834,149.9408 C108.2834,149.615998 108.179801,149.352801 107.9726,149.1512 C107.765399,148.949599 107.493802,148.781601 107.1578,148.6472 C106.821798,148.512799 106.441002,148.395201 106.0154,148.2944 C105.589798,148.193599 105.158602,148.081601 104.7218,147.9584 C104.273798,147.846399 103.837002,147.709201 103.4114,147.5468 C102.985798,147.384399 102.605002,147.174401 102.269,146.9168 C101.932998,146.659199 101.661401,146.337202 101.4542,145.9508 C101.246999,145.564398 101.1434,145.096803 101.1434,144.548 C101.1434,143.931997 101.274999,143.397202 101.5382,142.9436 C101.801401,142.489998 102.145798,142.112002 102.5714,141.8096 C102.997002,141.507198 103.478597,141.283201 104.0162,141.1376 C104.553803,140.991999 105.091397,140.9192 105.629,140.9192 C106.256203,140.9192 106.858197,140.989199 107.435,141.1292 C108.011803,141.269201 108.524198,141.495998 108.9722,141.8096 C109.420202,142.123202 109.775799,142.523598 110.039,143.0108 C110.302201,143.498002 110.4338,144.088797 110.4338,144.7832 L107.8802,144.7832 C107.8578,144.424798 107.782201,144.128001 107.6534,143.8928 C107.524599,143.657599 107.353801,143.472801 107.141,143.3384 C106.928199,143.203999 106.684601,143.1088 106.4102,143.0528 C106.135799,142.9968 105.836202,142.9688 105.5114,142.9688 C105.298599,142.9688 105.085801,142.9912 104.873,143.036 C104.660199,143.0808 104.467001,143.159199 104.2934,143.2712 C104.119799,143.383201 103.977001,143.523199 103.865,143.6912 C103.752999,143.859201 103.697,144.071999 103.697,144.3296 C103.697,144.564801 103.7418,144.755199 103.8314,144.9008 C103.921,145.046401 104.097399,145.180799 104.3606,145.304 C104.623801,145.427201 104.987798,145.550399 105.4526,145.6736 C105.917402,145.796801 106.524996,145.953599 107.2754,146.144 C107.499401,146.1888 107.810198,146.269999 108.2078,146.3876 C108.605402,146.505201 109.000198,146.692799 109.3922,146.9504 C109.784202,147.208001 110.122999,147.552398 110.4086,147.9836 C110.694201,148.414802 110.837,148.966397 110.837,149.6384 C110.837,150.187203 110.730601,150.696798 110.5178,151.1672 C110.304999,151.637602 109.988602,152.043598 109.5686,152.3852 C109.148598,152.726802 108.627803,152.992799 108.0062,153.1832 C107.384597,153.373601 106.665004,153.4688 105.8474,153.4688 C105.186597,153.4688 104.545403,153.387601 103.9238,153.2252 C103.302197,153.062799 102.753402,152.808002 102.2774,152.4608 C101.801398,152.113598 101.423401,151.671203 101.1434,151.1336 C100.863399,150.595997 100.729,149.957604 100.7402,149.2184 L103.2938,149.2184 Z" id="VENTA-DE-PRODUCTOS" fill="#003769"></path>
                        <path d="M198.66,127.3632 L201.768,127.3632 L200.256,122.9616 L200.2224,122.9616 L198.66,127.3632 Z M198.912,120.0048 L201.6168,120.0048 L206.1024,132 L203.364,132 L202.4568,129.3288 L197.9712,129.3288 L197.0304,132 L194.376,132 L198.912,120.0048 Z M208.3228,122.2224 L204.7276,122.2224 L204.7276,120.0048 L214.5556,120.0048 L214.5556,122.2224 L210.9604,122.2224 L210.9604,132 L208.3228,132 L208.3228,122.2224 Z M216.0032,120.0048 L224.9744,120.0048 L224.9744,122.2224 L218.6408,122.2224 L218.6408,124.7928 L224.4536,124.7928 L224.4536,126.8424 L218.6408,126.8424 L218.6408,129.7824 L225.1088,129.7824 L225.1088,132 L216.0032,132 L216.0032,120.0048 Z M226.9596,120.0048 L229.5804,120.0048 L234.5868,128.052 L234.6204,128.052 L234.6204,120.0048 L237.09,120.0048 L237.09,132 L234.4524,132 L229.4628,123.9696 L229.4292,123.9696 L229.4292,132 L226.9596,132 L226.9596,120.0048 Z M247.4752,124.0368 C247.4304,123.734398 247.329601,123.457201 247.1728,123.2052 C247.015999,122.953199 246.820001,122.732001 246.5848,122.5416 C246.349599,122.351199 246.083601,122.202801 245.7868,122.0964 C245.489999,121.989999 245.179202,121.9368 244.8544,121.9368 C244.260797,121.9368 243.756802,122.051599 243.3424,122.2812 C242.927998,122.510801 242.592001,122.818798 242.3344,123.2052 C242.076799,123.591602 241.889201,124.031198 241.7716,124.524 C241.653999,125.016802 241.5952,125.526397 241.5952,126.0528 C241.5952,126.556803 241.653999,127.046798 241.7716,127.5228 C241.889201,127.998802 242.076799,128.427198 242.3344,128.808 C242.592001,129.188802 242.927998,129.493999 243.3424,129.7236 C243.756802,129.953201 244.260797,130.068 244.8544,130.068 C245.660804,130.068 246.290798,129.821602 246.7444,129.3288 C247.198002,128.835998 247.475199,128.186404 247.576,127.38 L250.1296,127.38 C250.0624,128.130404 249.888801,128.807997 249.6088,129.4128 C249.328799,130.017603 248.959202,130.532798 248.5,130.9584 C248.040798,131.384002 247.503203,131.708799 246.8872,131.9328 C246.271197,132.156801 245.593604,132.2688 244.8544,132.2688 C243.935995,132.2688 243.110004,132.109202 242.3764,131.79 C241.642796,131.470798 241.024003,131.031203 240.52,130.4712 C240.015997,129.911197 239.629601,129.253204 239.3608,128.4972 C239.091999,127.741196 238.9576,126.926404 238.9576,126.0528 C238.9576,125.156796 239.091999,124.325204 239.3608,123.558 C239.629601,122.790796 240.015997,122.121603 240.52,121.5504 C241.024003,120.979197 241.642796,120.531202 242.3764,120.2064 C243.110004,119.881598 243.935995,119.7192 244.8544,119.7192 C245.515203,119.7192 246.139597,119.814399 246.7276,120.0048 C247.315603,120.195201 247.841998,120.472398 248.3068,120.8364 C248.771602,121.200402 249.155198,121.651197 249.4576,122.1888 C249.760002,122.726403 249.9504,123.342397 250.0288,124.0368 L247.4752,124.0368 Z M251.9972,120.0048 L254.6348,120.0048 L254.6348,132 L251.9972,132 L251.9972,120.0048 Z M259.14,126.0528 C259.14,126.556803 259.198799,127.046798 259.3164,127.5228 C259.434001,127.998802 259.621599,128.427198 259.8792,128.808 C260.136801,129.188802 260.472798,129.493999 260.8872,129.7236 C261.301602,129.953201 261.805597,130.068 262.3992,130.068 C262.992803,130.068 263.496798,129.953201 263.9112,129.7236 C264.325602,129.493999 264.661599,129.188802 264.9192,128.808 C265.176801,128.427198 265.364399,127.998802 265.482,127.5228 C265.599601,127.046798 265.6584,126.556803 265.6584,126.0528 C265.6584,125.526397 265.599601,125.016802 265.482,124.524 C265.364399,124.031198 265.176801,123.591602 264.9192,123.2052 C264.661599,122.818798 264.325602,122.510801 263.9112,122.2812 C263.496798,122.051599 262.992803,121.9368 262.3992,121.9368 C261.805597,121.9368 261.301602,122.051599 260.8872,122.2812 C260.472798,122.510801 260.136801,122.818798 259.8792,123.2052 C259.621599,123.591602 259.434001,124.031198 259.3164,124.524 C259.198799,125.016802 259.14,125.526397 259.14,126.0528 Z M256.5024,126.0528 C256.5024,125.156796 256.636799,124.325204 256.9056,123.558 C257.174401,122.790796 257.560797,122.121603 258.0648,121.5504 C258.568803,120.979197 259.187596,120.531202 259.9212,120.2064 C260.654804,119.881598 261.480795,119.7192 262.3992,119.7192 C263.328805,119.7192 264.157596,119.881598 264.8856,120.2064 C265.613604,120.531202 266.229597,120.979197 266.7336,121.5504 C267.237603,122.121603 267.623999,122.790796 267.8928,123.558 C268.161601,124.325204 268.296,125.156796 268.296,126.0528 C268.296,126.926404 268.161601,127.741196 267.8928,128.4972 C267.623999,129.253204 267.237603,129.911197 266.7336,130.4712 C266.229597,131.031203 265.613604,131.470798 264.8856,131.79 C264.157596,132.109202 263.328805,132.2688 262.3992,132.2688 C261.480795,132.2688 260.654804,132.109202 259.9212,131.79 C259.187596,131.470798 258.568803,131.031203 258.0648,130.4712 C257.560797,129.911197 257.174401,129.253204 256.9056,128.4972 C256.636799,127.741196 256.5024,126.926404 256.5024,126.0528 Z M265.44,115.956 L262.7016,118.9296 L261.0384,118.9296 L262.8192,115.956 L265.44,115.956 Z M270.1636,120.0048 L272.7844,120.0048 L277.7908,128.052 L277.8244,128.052 L277.8244,120.0048 L280.294,120.0048 L280.294,132 L277.6564,132 L272.6668,123.9696 L272.6332,123.9696 L272.6332,132 L270.1636,132 L270.1636,120.0048 Z M196.4256,141.2048 L199.0632,141.2048 L199.0632,153.2 L196.4256,153.2 L196.4256,141.2048 Z M201.4516,141.2048 L204.0724,141.2048 L209.0788,149.252 L209.1124,149.252 L209.1124,141.2048 L211.582,141.2048 L211.582,153.2 L208.9444,153.2 L203.9548,145.1696 L203.9212,145.1696 L203.9212,153.2 L201.4516,153.2 L201.4516,141.2048 Z M216.6248,143.4224 L213.0296,143.4224 L213.0296,141.2048 L222.8576,141.2048 L222.8576,143.4224 L219.2624,143.4224 L219.2624,153.2 L216.6248,153.2 L216.6248,143.4224 Z M224.3052,141.2048 L233.2764,141.2048 L233.2764,143.4224 L226.9428,143.4224 L226.9428,145.9928 L232.7556,145.9928 L232.7556,148.0424 L226.9428,148.0424 L226.9428,150.9824 L233.4108,150.9824 L233.4108,153.2 L224.3052,153.2 L224.3052,141.2048 Z M243.9304,151.8392 C243.459998,152.444003 242.939203,152.866799 242.368,153.1076 C241.796797,153.348401 241.220003,153.4688 240.6376,153.4688 C239.719195,153.4688 238.893204,153.309202 238.1596,152.99 C237.425996,152.670798 236.807203,152.231203 236.3032,151.6712 C235.799197,151.111197 235.412801,150.453204 235.144,149.6972 C234.875199,148.941196 234.7408,148.126404 234.7408,147.2528 C234.7408,146.356796 234.875199,145.525204 235.144,144.758 C235.412801,143.990796 235.799197,143.321603 236.3032,142.7504 C236.807203,142.179197 237.425996,141.731202 238.1596,141.4064 C238.893204,141.081598 239.719195,140.9192 240.6376,140.9192 C241.253603,140.9192 241.849997,141.011599 242.4268,141.1964 C243.003603,141.381201 243.524398,141.652798 243.9892,142.0112 C244.454002,142.369602 244.837598,142.811997 245.14,143.3384 C245.442402,143.864803 245.6272,144.469597 245.6944,145.1528 L243.1744,145.1528 C243.017599,144.480797 242.715202,143.976802 242.2672,143.6408 C241.819198,143.304798 241.276003,143.1368 240.6376,143.1368 C240.043997,143.1368 239.540002,143.251599 239.1256,143.4812 C238.711198,143.710801 238.375201,144.018798 238.1176,144.4052 C237.859999,144.791602 237.672401,145.231198 237.5548,145.724 C237.437199,146.216802 237.3784,146.726397 237.3784,147.2528 C237.3784,147.756803 237.437199,148.246798 237.5548,148.7228 C237.672401,149.198802 237.859999,149.627198 238.1176,150.008 C238.375201,150.388802 238.711198,150.693999 239.1256,150.9236 C239.540002,151.153201 240.043997,151.268 240.6376,151.268 C241.511204,151.268 242.185998,151.046802 242.662,150.6044 C243.138002,150.161998 243.4152,149.520804 243.4936,148.6808 L240.8392,148.6808 L240.8392,146.7152 L245.8792,146.7152 L245.8792,153.2 L244.1992,153.2 L243.9304,151.8392 Z M250.7204,146.6312 L253.61,146.6312 C254.214803,146.6312 254.668398,146.496801 254.9708,146.228 C255.273202,145.959199 255.4244,145.522403 255.4244,144.9176 C255.4244,144.335197 255.273202,143.912401 254.9708,143.6492 C254.668398,143.385999 254.214803,143.2544 253.61,143.2544 L250.7204,143.2544 L250.7204,146.6312 Z M248.0828,141.2048 L254.5508,141.2048 C255.088403,141.2048 255.572798,141.291599 256.004,141.4652 C256.435202,141.638801 256.804798,141.876798 257.1128,142.1792 C257.420802,142.481602 257.655999,142.831598 257.8184,143.2292 C257.980801,143.626802 258.062,144.055198 258.062,144.5144 C258.062,145.220004 257.913601,145.830397 257.6168,146.3456 C257.319999,146.860803 256.835603,147.252799 256.1636,147.5216 L256.1636,147.5552 C256.488402,147.6448 256.757199,147.781999 256.97,147.9668 C257.182801,148.151601 257.356399,148.369999 257.4908,148.622 C257.625201,148.874001 257.7232,149.151198 257.7848,149.4536 C257.8464,149.756002 257.8884,150.058398 257.9108,150.3608 C257.922,150.551201 257.9332,150.775199 257.9444,151.0328 C257.9556,151.290401 257.9752,151.553599 258.0032,151.8224 C258.0312,152.091201 258.076,152.345999 258.1376,152.5868 C258.1992,152.827601 258.291599,153.031999 258.4148,153.2 L255.7772,153.2 C255.631599,152.819198 255.542,152.365603 255.5084,151.8392 C255.4748,151.312797 255.4244,150.808802 255.3572,150.3272 C255.2676,149.699997 255.077201,149.240801 254.786,148.9496 C254.494799,148.658399 254.018803,148.5128 253.358,148.5128 L250.7204,148.5128 L250.7204,153.2 L248.0828,153.2 L248.0828,141.2048 Z M263.3064,148.5632 L266.4144,148.5632 L264.9024,144.1616 L264.8688,144.1616 L263.3064,148.5632 Z M263.5584,141.2048 L266.2632,141.2048 L270.7488,153.2 L268.0104,153.2 L267.1032,150.5288 L262.6176,150.5288 L261.6768,153.2 L259.0224,153.2 L263.5584,141.2048 Z M271.8604,141.2048 L274.498,141.2048 L274.498,150.9824 L280.3444,150.9824 L280.3444,153.2 L271.8604,153.2 L271.8604,141.2048 Z" id="ATENCIÓN-INTEGRAL" fill="#003769"></path>
                        <g id="Group-7" stroke-width="1" fill="none">
                            <circle id="Oval-2" fill="#C6C6C6" cx="50" cy="50" r="50"></circle>
                            <g id="iconfinder_dropbox_306198" transform="translate(20.000000, 22.000000)" fill="#003769" fill-rule="nonzero">
                                <polygon id="Shape" points="30.02 34.7 18 44 12 40 12 46 30.02 56 48 46 48 40 42 44"></polygon>
                                <polygon id="Shape" points="60 30 42 42.084 30 32 48 22"></polygon>
                                <polygon id="Shape" points="18 0 0 12.166 12 22 30 10"></polygon>
                                <polygon id="Shape" points="60 12.084 42 0 30 10 48 22"></polygon>
                                <polygon id="Shape" points="0 30 18 42 30 32 12 22"></polygon>
                            </g>
                        </g>
                        <g id="Group-7" stroke-width="1" fill="none" transform="translate(188.000000, 0.000000)">
                            <circle id="Oval-2" fill="#C6C6C6" cx="50" cy="50" r="50"></circle>
                            <g id="key-(1)" transform="translate(22.000000, 31.000000)" fill="#003769" fill-rule="nonzero">
                                <path d="M53.9064254,26.722832 C50.7031859,28.482627 46.2974873,30.109918 41.9036704,30.7957746 C37.9945944,31.4060287 30.6404704,29.934418 30.6404704,28.1962008 C30.6404704,27.5375164 37.090462,29.8191762 40.991831,28.7827992 C43.9836085,27.9882541 43.5589183,25.2024713 41.9316085,24.8350082 C40.3137718,24.4694631 30.8352338,21.0126885 26.7866282,20.8934508 C24.8796169,20.8371885 20.1710958,21.5537336 17.8925408,21.9232746 C17.1120423,22.0497049 16.6226451,22.0356393 16.5738338,22.7791967 C16.3471183,26.2346926 15.9002704,33.3015246 15.6565352,36.9927787 C15.6515577,37.0707787 15.7602592,38.1197828 16.630031,37.3815 C17.5816901,36.5738484 18.9164535,35.6782869 20.1510254,35.957041 C22.0879014,36.3946721 38.8444563,39.4505779 41.1557662,38.9156066 C44.4624085,38.150791 53.8222901,32.6286148 55.616907,30.9122951 C58.3986676,28.2515041 56.2365211,25.4425451 53.9064254,26.722832 Z" id="Shape"></path>
                                <path d="M11.9500901,21.7885328 L3.17176901,21.3580943 C2.49403099,21.3246885 1.80184225,21.8332869 1.63341127,22.4874959 L0.0374112676,36.9133402 C-0.131019718,37.567709 0.286123944,38.1245779 0.964183099,38.150791 L10.6927183,38.149832 C11.370938,38.1757254 11.9679127,37.6460287 12.0199352,36.9726393 L13.0881634,23.0734549 C13.1398648,22.4000656 12.6278282,21.8216189 11.9500901,21.7885328 Z M6.78235775,36.2383525 C5.44181408,36.2383525 4.35528169,35.156582 4.35528169,33.8224303 C4.35528169,32.4877992 5.44197465,31.4061885 6.78235775,31.4061885 C8.12290141,31.4061885 9.2094338,32.487959 9.2094338,33.8224303 C9.2094338,35.1567418 8.12274085,36.2383525 6.78235775,36.2383525 Z" id="Shape"></path>
                                <path d="M52.0069606,14.7779631 L52.6307493,12.6903443 C53.01,11.4214057 52.284093,10.0864549 51.0090592,9.7087623 C49.7343465,9.33138934 48.3931606,10.0540082 48.0139099,11.3231066 L47.4015211,13.3725246 C47.4015211,13.3725246 47.3066282,13.8651393 46.7489915,13.7000287 C46.3665296,13.5867049 45.2196254,13.2470533 45.2196254,13.2470533 C45.2196254,13.2470533 44.6982761,13.1655369 44.8517746,12.6519836 C45.0759211,11.901873 45.7485211,9.65170082 45.7485211,9.65170082 C46.1277718,8.3827623 45.4018648,7.0474918 44.126831,6.67011885 C42.8519577,6.29242623 41.5109324,7.01504508 41.1315211,8.28446311 C41.1315211,8.28446311 40.4590817,10.5346352 40.2349352,11.2845861 C40.0783859,11.8080492 39.5610507,11.5714918 39.5610507,11.5714918 L32.8053465,9.57066393 C32.3308817,9.42984836 32.3230141,8.71378279 32.2889746,8.36102459 C31.9428,4.77494262 29.4656282,1.5777418 25.7896901,0.488778689 C20.9527183,-0.943831967 15.8466423,1.80806557 14.4075127,6.62312705 C12.9685437,11.4381885 15.7329634,16.5211352 20.5699352,17.9537459 C24.4135014,19.0919385 28.4251775,17.5869221 30.6335662,14.505123 C30.7453183,14.3489631 30.970107,14.0299303 31.4318873,14.16675 L50.5011972,19.813918 C51.7760704,20.1916107 53.1170958,19.4689918 53.496507,18.1995738 C53.8071972,17.1593607 53.3754423,16.074873 52.5074366,15.5095328 C52.3168479,15.3853402 51.9037183,15.1225697 52.0069606,14.7779631 Z M21.485307,14.8893689 C18.3454901,13.9594426 16.5510338,10.6602664 17.4851915,7.53435246 C18.4193493,4.4087582 21.7338592,2.62259016 24.8736761,3.55251639 C28.013493,4.48244262 29.8077887,7.78161885 28.873631,10.9075328 C27.9393127,14.033127 24.6251239,15.8192951 21.485307,14.8893689 Z" id="Shape"></path>
                            </g>
                        </g>
                    </g>
                </g>
            </g>
        </g>
    </g>
</svg>