<?xml version="1.0" encoding="UTF-8"?>
<svg width="296px" height="154px" viewBox="0 0 296 154" version="1.1" xmlns="http://www.w3.org/2000/svg" xmlns:xlink="http://www.w3.org/1999/xlink">
    <!-- Generator: Sketch 51.3 (57544) - http://www.bohemiancoding.com/sketch -->
    <title>Group 8</title>
    <desc>Created with Sketch.</desc>
    <defs>
        <rect id="path-1" x="0" y="0" width="350" height="200"></rect>
    </defs>
    <g id="Page-1" stroke="none" stroke-width="1" fill="none" fill-rule="evenodd">
        <g id="Desktop-HD" transform="translate(-238.000000, -543.000000)">
            <g id="Group-8" transform="translate(218.000000, 522.000000)">
                <mask id="mask-2" fill="white">
                    <use xlink:href="#path-1"></use>
                </mask>
                <g id="Mask"></g>
                <g mask="url(#mask-2)">
                    <g transform="translate(20.000000, 21.000000)">
                        <path d="M19.3808,132 L16.4072,132 L12.5264,120.0048 L15.2312,120.0048 L17.9024,128.4384 L17.936,128.4384 L20.6408,120.0048 L23.3624,120.0048 L19.3808,132 Z M24.4572,120.0048 L33.4284,120.0048 L33.4284,122.2224 L27.0948,122.2224 L27.0948,124.7928 L32.9076,124.7928 L32.9076,126.8424 L27.0948,126.8424 L27.0948,129.7824 L33.5628,129.7824 L33.5628,132 L24.4572,132 L24.4572,120.0048 Z M35.4136,120.0048 L38.0344,120.0048 L43.0408,128.052 L43.0744,128.052 L43.0744,120.0048 L45.544,120.0048 L45.544,132 L42.9064,132 L37.9168,123.9696 L37.8832,123.9696 L37.8832,132 L35.4136,132 L35.4136,120.0048 Z M50.5868,122.2224 L46.9916,122.2224 L46.9916,120.0048 L56.8196,120.0048 L56.8196,122.2224 L53.2244,122.2224 L53.2244,132 L50.5868,132 L50.5868,122.2224 Z M59.7456,127.3632 L62.8536,127.3632 L61.3416,122.9616 L61.308,122.9616 L59.7456,127.3632 Z M59.9976,120.0048 L62.7024,120.0048 L67.188,132 L64.4496,132 L63.5424,129.3288 L59.0568,129.3288 L58.116,132 L55.4616,132 L59.9976,120.0048 Z M75.6776,129.7824 L78.0296,129.7824 C78.4104019,129.7824 78.7799982,129.720801 79.1384,129.5976 C79.4968018,129.474399 79.8159986,129.270001 80.096,128.9844 C80.3760014,128.698799 80.5999992,128.326402 80.768,127.8672 C80.9360008,127.407998 81.02,126.848003 81.02,126.1872 C81.02,125.582397 80.9612006,125.036402 80.8436,124.5492 C80.7259994,124.061998 80.5328013,123.644802 80.264,123.2976 C79.9951986,122.950398 79.6396022,122.684401 79.1972,122.4996 C78.7547978,122.314799 78.2088032,122.2224 77.5592,122.2224 L75.6776,122.2224 L75.6776,129.7824 Z M73.04,120.0048 L78.2144,120.0048 C78.9872039,120.0048 79.7067967,120.127999 80.3732,120.3744 C81.0396033,120.620801 81.6163976,120.990398 82.1036,121.4832 C82.5908024,121.976002 82.9715986,122.591996 83.246,123.3312 C83.5204014,124.070404 83.6576,124.938395 83.6576,125.9352 C83.6576,126.808804 83.5456011,127.615196 83.3216,128.3544 C83.0975989,129.093604 82.7588023,129.731997 82.3052,130.2696 C81.8515977,130.807203 81.2860034,131.229998 80.6084,131.538 C79.9307966,131.846002 79.1328046,132 78.2144,132 L73.04,132 L73.04,120.0048 Z M85.5588,120.0048 L94.53,120.0048 L94.53,122.2224 L88.1964,122.2224 L88.1964,124.7928 L94.0092,124.7928 L94.0092,126.8424 L88.1964,126.8424 L88.1964,129.7824 L94.6644,129.7824 L94.6644,132 L85.5588,132 L85.5588,120.0048 Z M3.48660002,146.8496 L5.53620002,146.8496 C5.83860153,146.8496 6.12979862,146.8272 6.40980002,146.7824 C6.68980142,146.7376 6.93619895,146.650801 7.14900002,146.522 C7.36180108,146.393199 7.53259937,146.211201 7.66140002,145.976 C7.79020066,145.740799 7.85460002,145.432802 7.85460002,145.052 C7.85460002,144.671198 7.79020066,144.363201 7.66140002,144.128 C7.53259937,143.892799 7.36180108,143.710801 7.14900002,143.582 C6.93619895,143.453199 6.68980142,143.3664 6.40980002,143.3216 C6.12979862,143.2768 5.83860153,143.2544 5.53620002,143.2544 L3.48660002,143.2544 L3.48660002,146.8496 Z M0.849000019,141.2048 L6.25860002,141.2048 C7.00900377,141.2048 7.64739739,141.313999 8.17380002,141.5324 C8.70020265,141.750801 9.12859837,142.039198 9.45900002,142.3976 C9.78940167,142.756002 10.0301993,143.164798 10.1814,143.624 C10.3326008,144.083202 10.4082,144.559198 10.4082,145.052 C10.4082,145.533602 10.3326008,146.006798 10.1814,146.4716 C10.0301993,146.936402 9.78940167,147.347998 9.45900002,147.7064 C9.12859837,148.064802 8.70020265,148.353199 8.17380002,148.5716 C7.64739739,148.790001 7.00900377,148.8992 6.25860002,148.8992 L3.48660002,148.8992 L3.48660002,153.2 L0.849000019,153.2 L0.849000019,141.2048 Z M14.7622,146.6312 L17.6518,146.6312 C18.256603,146.6312 18.7101985,146.496801 19.0126,146.228 C19.3150015,145.959199 19.4662,145.522403 19.4662,144.9176 C19.4662,144.335197 19.3150015,143.912401 19.0126,143.6492 C18.7101985,143.385999 18.256603,143.2544 17.6518,143.2544 L14.7622,143.2544 L14.7622,146.6312 Z M12.1246,141.2048 L18.5926,141.2048 C19.1302027,141.2048 19.6145979,141.291599 20.0458,141.4652 C20.4770022,141.638801 20.8465985,141.876798 21.1546,142.1792 C21.4626016,142.481602 21.6977992,142.831598 21.8602,143.2292 C22.0226008,143.626802 22.1038,144.055198 22.1038,144.5144 C22.1038,145.220004 21.9554015,145.830397 21.6586,146.3456 C21.3617985,146.860803 20.8774034,147.252799 20.2054,147.5216 L20.2054,147.5552 C20.5302016,147.6448 20.798999,147.781999 21.0118,147.9668 C21.2246011,148.151601 21.3981993,148.369999 21.5326,148.622 C21.6670007,148.874001 21.7649997,149.151198 21.8266,149.4536 C21.8882003,149.756002 21.9301999,150.058398 21.9526,150.3608 C21.9638001,150.551201 21.975,150.775199 21.9862,151.0328 C21.9974001,151.290401 22.0169999,151.553599 22.045,151.8224 C22.0730002,152.091201 22.1177997,152.345999 22.1794,152.5868 C22.2410003,152.827601 22.3333994,153.031999 22.4566,153.2 L19.819,153.2 C19.6733993,152.819198 19.5838002,152.365603 19.5502,151.8392 C19.5165998,151.312797 19.4662004,150.808802 19.399,150.3272 C19.3093996,149.699997 19.1190015,149.240801 18.8278,148.9496 C18.5365986,148.658399 18.0606033,148.5128 17.3998,148.5128 L14.7622,148.5128 L14.7622,153.2 L12.1246,153.2 L12.1246,141.2048 Z M26.441,147.2528 C26.441,147.756803 26.4997994,148.246798 26.6174,148.7228 C26.7350006,149.198802 26.9225987,149.627198 27.1802,150.008 C27.4378013,150.388802 27.7737979,150.693999 28.1882,150.9236 C28.6026021,151.153201 29.106597,151.268 29.7002,151.268 C30.293803,151.268 30.7977979,151.153201 31.2122,150.9236 C31.6266021,150.693999 31.9625987,150.388802 32.2202,150.008 C32.4778013,149.627198 32.6653994,149.198802 32.783,148.7228 C32.9006006,148.246798 32.9594,147.756803 32.9594,147.2528 C32.9594,146.726397 32.9006006,146.216802 32.783,145.724 C32.6653994,145.231198 32.4778013,144.791602 32.2202,144.4052 C31.9625987,144.018798 31.6266021,143.710801 31.2122,143.4812 C30.7977979,143.251599 30.293803,143.1368 29.7002,143.1368 C29.106597,143.1368 28.6026021,143.251599 28.1882,143.4812 C27.7737979,143.710801 27.4378013,144.018798 27.1802,144.4052 C26.9225987,144.791602 26.7350006,145.231198 26.6174,145.724 C26.4997994,146.216802 26.441,146.726397 26.441,147.2528 Z M23.8034,147.2528 C23.8034,146.356796 23.9377987,145.525204 24.2066,144.758 C24.4754014,143.990796 24.8617975,143.321603 25.3658,142.7504 C25.8698025,142.179197 26.4885963,141.731202 27.2222,141.4064 C27.9558037,141.081598 28.7817954,140.9192 29.7002,140.9192 C30.6298047,140.9192 31.4585964,141.081598 32.1866,141.4064 C32.9146037,141.731202 33.5305975,142.179197 34.0346,142.7504 C34.5386025,143.321603 34.9249987,143.990796 35.1938,144.758 C35.4626014,145.525204 35.597,146.356796 35.597,147.2528 C35.597,148.126404 35.4626014,148.941196 35.1938,149.6972 C34.9249987,150.453204 34.5386025,151.111197 34.0346,151.6712 C33.5305975,152.231203 32.9146037,152.670798 32.1866,152.99 C31.4585964,153.309202 30.6298047,153.4688 29.7002,153.4688 C28.7817954,153.4688 27.9558037,153.309202 27.2222,152.99 C26.4885963,152.670798 25.8698025,152.231203 25.3658,151.6712 C24.8617975,151.111197 24.4754014,150.453204 24.2066,149.6972 C23.9377987,148.941196 23.8034,148.126404 23.8034,147.2528 Z M40.1022,150.9824 L42.4542,150.9824 C42.8350019,150.9824 43.2045982,150.920801 43.563,150.7976 C43.9214018,150.674399 44.2405986,150.470001 44.5206,150.1844 C44.8006014,149.898799 45.0245992,149.526402 45.1926,149.0672 C45.3606008,148.607998 45.4446,148.048003 45.4446,147.3872 C45.4446,146.782397 45.3858006,146.236402 45.2682,145.7492 C45.1505994,145.261998 44.9574014,144.844802 44.6886,144.4976 C44.4197987,144.150398 44.0642022,143.884401 43.6218,143.6996 C43.1793978,143.514799 42.6334033,143.4224 41.9838,143.4224 L40.1022,143.4224 L40.1022,150.9824 Z M37.4646,141.2048 L42.639,141.2048 C43.4118039,141.2048 44.1313967,141.327999 44.7978,141.5744 C45.4642033,141.820801 46.0409976,142.190398 46.5282,142.6832 C47.0154024,143.176002 47.3961986,143.791996 47.6706,144.5312 C47.9450014,145.270404 48.0822,146.138395 48.0822,147.1352 C48.0822,148.008804 47.9702011,148.815196 47.7462,149.5544 C47.5221989,150.293604 47.1834023,150.931997 46.7298,151.4696 C46.2761977,152.007203 45.7106034,152.429998 45.033,152.738 C44.3553966,153.046002 43.5574046,153.2 42.639,153.2 L37.4646,153.2 L37.4646,141.2048 Z M60.1642,148.664 C60.1642,150.288008 59.7106045,151.494796 58.8034,152.2844 C57.8961955,153.074004 56.641808,153.4688 55.0402,153.4688 C53.4161919,153.4688 52.1590045,153.076804 51.2686,152.2928 C50.3781956,151.508796 49.933,150.299208 49.933,148.664 L49.933,141.2048 L52.5706,141.2048 L52.5706,148.664 C52.5706,148.988802 52.5985997,149.307998 52.6546,149.6216 C52.7106003,149.935202 52.8281991,150.212399 53.0074,150.4532 C53.1866009,150.694001 53.4357984,150.889999 53.755,151.0412 C54.0742016,151.192401 54.5025973,151.268 55.0402,151.268 C55.9810047,151.268 56.6305982,151.058002 56.989,150.638 C57.3474018,150.217998 57.5266,149.560004 57.5266,148.664 L57.5266,141.2048 L60.1642,141.2048 L60.1642,148.664 Z M70.499,145.2368 C70.4541998,144.934398 70.3534008,144.657201 70.1966,144.4052 C70.0397992,144.153199 69.8438012,143.932001 69.6086,143.7416 C69.3733988,143.551199 69.1074015,143.402801 68.8106,143.2964 C68.5137985,143.189999 68.2030016,143.1368 67.8782,143.1368 C67.284597,143.1368 66.7806021,143.251599 66.3662,143.4812 C65.9517979,143.710801 65.6158013,144.018798 65.3582,144.4052 C65.1005987,144.791602 64.9130006,145.231198 64.7954,145.724 C64.6777994,146.216802 64.619,146.726397 64.619,147.2528 C64.619,147.756803 64.6777994,148.246798 64.7954,148.7228 C64.9130006,149.198802 65.1005987,149.627198 65.3582,150.008 C65.6158013,150.388802 65.9517979,150.693999 66.3662,150.9236 C66.7806021,151.153201 67.284597,151.268 67.8782,151.268 C68.684604,151.268 69.3145977,151.021602 69.7682,150.5288 C70.2218023,150.035998 70.4989995,149.386404 70.5998,148.58 L73.1534,148.58 C73.0861997,149.330404 72.9126014,150.007997 72.6326,150.6128 C72.3525986,151.217603 71.9830023,151.732798 71.5238,152.1584 C71.0645977,152.584002 70.5270031,152.908799 69.911,153.1328 C69.2949969,153.356801 68.6174037,153.4688 67.8782,153.4688 C66.9597954,153.4688 66.1338037,153.309202 65.4002,152.99 C64.6665963,152.670798 64.0478025,152.231203 63.5438,151.6712 C63.0397975,151.111197 62.6534013,150.453204 62.3846,149.6972 C62.1157987,148.941196 61.9814,148.126404 61.9814,147.2528 C61.9814,146.356796 62.1157987,145.525204 62.3846,144.758 C62.6534013,143.990796 63.0397975,143.321603 63.5438,142.7504 C64.0478025,142.179197 64.6665963,141.731202 65.4002,141.4064 C66.1338037,141.081598 66.9597954,140.9192 67.8782,140.9192 C68.5390033,140.9192 69.1633971,141.014399 69.7514,141.2048 C70.3394029,141.395201 70.8657977,141.672398 71.3306,142.0364 C71.7954023,142.400402 72.1789985,142.851197 72.4814,143.3888 C72.7838015,143.926403 72.9741996,144.542397 73.0526,145.2368 L70.499,145.2368 Z M77.6754,143.4224 L74.0802,143.4224 L74.0802,141.2048 L83.9082,141.2048 L83.9082,143.4224 L80.313,143.4224 L80.313,153.2 L77.6754,153.2 L77.6754,143.4224 Z M87.4726,147.2528 C87.4726,147.756803 87.5313994,148.246798 87.649,148.7228 C87.7666006,149.198802 87.9541987,149.627198 88.2118,150.008 C88.4694013,150.388802 88.8053979,150.693999 89.2198,150.9236 C89.6342021,151.153201 90.138197,151.268 90.7318,151.268 C91.325403,151.268 91.8293979,151.153201 92.2438,150.9236 C92.6582021,150.693999 92.9941987,150.388802 93.2518,150.008 C93.5094013,149.627198 93.6969994,149.198802 93.8146,148.7228 C93.9322006,148.246798 93.991,147.756803 93.991,147.2528 C93.991,146.726397 93.9322006,146.216802 93.8146,145.724 C93.6969994,145.231198 93.5094013,144.791602 93.2518,144.4052 C92.9941987,144.018798 92.6582021,143.710801 92.2438,143.4812 C91.8293979,143.251599 91.325403,143.1368 90.7318,143.1368 C90.138197,143.1368 89.6342021,143.251599 89.2198,143.4812 C88.8053979,143.710801 88.4694013,144.018798 88.2118,144.4052 C87.9541987,144.791602 87.7666006,145.231198 87.649,145.724 C87.5313994,146.216802 87.4726,146.726397 87.4726,147.2528 Z M84.835,147.2528 C84.835,146.356796 84.9693986,145.525204 85.2382,144.758 C85.5070013,143.990796 85.8933975,143.321603 86.3974,142.7504 C86.9014025,142.179197 87.5201963,141.731202 88.2538,141.4064 C88.9874037,141.081598 89.8133954,140.9192 90.7318,140.9192 C91.6614046,140.9192 92.4901963,141.081598 93.2182,141.4064 C93.9462036,141.731202 94.5621975,142.179197 95.0662,142.7504 C95.5702025,143.321603 95.9565986,143.990796 96.2254,144.758 C96.4942013,145.525204 96.6286,146.356796 96.6286,147.2528 C96.6286,148.126404 96.4942013,148.941196 96.2254,149.6972 C95.9565986,150.453204 95.5702025,151.111197 95.0662,151.6712 C94.5621975,152.231203 93.9462036,152.670798 93.2182,152.99 C92.4901963,153.309202 91.6614046,153.4688 90.7318,153.4688 C89.8133954,153.4688 88.9874037,153.309202 88.2538,152.99 C87.5201963,152.670798 86.9014025,152.231203 86.3974,151.6712 C85.8933975,151.111197 85.5070013,150.453204 85.2382,149.6972 C84.9693986,148.941196 84.835,148.126404 84.835,147.2528 Z M100.2938,149.2184 C100.2938,149.621602 100.366599,149.963199 100.5122,150.2432 C100.657801,150.523201 100.850999,150.749999 101.0918,150.9236 C101.332601,151.097201 101.615398,151.226 101.9402,151.31 C102.265002,151.394 102.600998,151.436 102.9482,151.436 C103.183401,151.436 103.435399,151.4164 103.7042,151.3772 C103.973001,151.338 104.224999,151.262401 104.4602,151.1504 C104.695401,151.038399 104.891399,150.884401 105.0482,150.6884 C105.205001,150.492399 105.2834,150.243202 105.2834,149.9408 C105.2834,149.615998 105.179801,149.352801 104.9726,149.1512 C104.765399,148.949599 104.493802,148.781601 104.1578,148.6472 C103.821798,148.512799 103.441002,148.395201 103.0154,148.2944 C102.589798,148.193599 102.158602,148.081601 101.7218,147.9584 C101.273798,147.846399 100.837002,147.709201 100.4114,147.5468 C99.9857979,147.384399 99.6050017,147.174401 99.269,146.9168 C98.9329983,146.659199 98.661401,146.337202 98.4542,145.9508 C98.2469989,145.564398 98.1434,145.096803 98.1434,144.548 C98.1434,143.931997 98.2749987,143.397202 98.5382,142.9436 C98.8014013,142.489998 99.1457979,142.112002 99.5714,141.8096 C99.9970021,141.507198 100.478597,141.283201 101.0162,141.1376 C101.553803,140.991999 102.091397,140.9192 102.629,140.9192 C103.256203,140.9192 103.858197,140.989199 104.435,141.1292 C105.011803,141.269201 105.524198,141.495998 105.9722,141.8096 C106.420202,142.123202 106.775799,142.523598 107.039,143.0108 C107.302201,143.498002 107.4338,144.088797 107.4338,144.7832 L104.8802,144.7832 C104.8578,144.424798 104.782201,144.128001 104.6534,143.8928 C104.524599,143.657599 104.353801,143.472801 104.141,143.3384 C103.928199,143.203999 103.684601,143.1088 103.4102,143.0528 C103.135799,142.9968 102.836202,142.9688 102.5114,142.9688 C102.298599,142.9688 102.085801,142.9912 101.873,143.036 C101.660199,143.0808 101.467001,143.159199 101.2934,143.2712 C101.119799,143.383201 100.977001,143.523199 100.865,143.6912 C100.752999,143.859201 100.697,144.071999 100.697,144.3296 C100.697,144.564801 100.7418,144.755199 100.8314,144.9008 C100.921,145.046401 101.097399,145.180799 101.3606,145.304 C101.623801,145.427201 101.987798,145.550399 102.4526,145.6736 C102.917402,145.796801 103.524996,145.953599 104.2754,146.144 C104.499401,146.1888 104.810198,146.269999 105.2078,146.3876 C105.605402,146.505201 106.000198,146.692799 106.3922,146.9504 C106.784202,147.208001 107.122999,147.552398 107.4086,147.9836 C107.694201,148.414802 107.837,148.966397 107.837,149.6384 C107.837,150.187203 107.730601,150.696798 107.5178,151.1672 C107.304999,151.637602 106.988602,152.043598 106.5686,152.3852 C106.148598,152.726802 105.627803,152.992799 105.0062,153.1832 C104.384597,153.373601 103.665004,153.4688 102.8474,153.4688 C102.186597,153.4688 101.545403,153.387601 100.9238,153.2252 C100.302197,153.062799 99.7534024,152.808002 99.2774,152.4608 C98.8013976,152.113598 98.4234014,151.671203 98.1434,151.1336 C97.8633986,150.595997 97.7289999,149.957604 97.7402,149.2184 L100.2938,149.2184 Z" id="VENTA-DE-PRODUCTOS" fill="#003769"></path>
                        <path d="M184.1592,120.0048 L186.7968,120.0048 L186.7968,132 L184.1592,132 L184.1592,120.0048 Z M189.1852,120.0048 L191.806,120.0048 L196.8124,128.052 L196.846,128.052 L196.846,120.0048 L199.3156,120.0048 L199.3156,132 L196.678,132 L191.6884,123.9696 L191.6548,123.9696 L191.6548,132 L189.1852,132 L189.1852,120.0048 Z M203.5016,128.0184 C203.5016,128.421602 203.574399,128.763199 203.72,129.0432 C203.865601,129.323201 204.058799,129.549999 204.2996,129.7236 C204.540401,129.897201 204.823198,130.026 205.148,130.11 C205.472802,130.194 205.808798,130.236 206.156,130.236 C206.391201,130.236 206.643199,130.2164 206.912,130.1772 C207.180801,130.138 207.432799,130.062401 207.668,129.9504 C207.903201,129.838399 208.099199,129.684401 208.256,129.4884 C208.412801,129.292399 208.4912,129.043202 208.4912,128.7408 C208.4912,128.415998 208.387601,128.152801 208.1804,127.9512 C207.973199,127.749599 207.701602,127.581601 207.3656,127.4472 C207.029598,127.312799 206.648802,127.195201 206.2232,127.0944 C205.797598,126.993599 205.366402,126.881601 204.9296,126.7584 C204.481598,126.646399 204.044802,126.509201 203.6192,126.3468 C203.193598,126.184399 202.812802,125.974401 202.4768,125.7168 C202.140798,125.459199 201.869201,125.137202 201.662,124.7508 C201.454799,124.364398 201.3512,123.896803 201.3512,123.348 C201.3512,122.731997 201.482799,122.197202 201.746,121.7436 C202.009201,121.289998 202.353598,120.912002 202.7792,120.6096 C203.204802,120.307198 203.686397,120.083201 204.224,119.9376 C204.761603,119.791999 205.299197,119.7192 205.8368,119.7192 C206.464003,119.7192 207.065997,119.789199 207.6428,119.9292 C208.219603,120.069201 208.731998,120.295998 209.18,120.6096 C209.628002,120.923202 209.983599,121.323598 210.2468,121.8108 C210.510001,122.298002 210.6416,122.888797 210.6416,123.5832 L208.088,123.5832 C208.0656,123.224798 207.990001,122.928001 207.8612,122.6928 C207.732399,122.457599 207.561601,122.272801 207.3488,122.1384 C207.135999,122.003999 206.892401,121.9088 206.618,121.8528 C206.343599,121.7968 206.044002,121.7688 205.7192,121.7688 C205.506399,121.7688 205.293601,121.7912 205.0808,121.836 C204.867999,121.8808 204.674801,121.959199 204.5012,122.0712 C204.327599,122.183201 204.184801,122.323199 204.0728,122.4912 C203.960799,122.659201 203.9048,122.871999 203.9048,123.1296 C203.9048,123.364801 203.9496,123.555199 204.0392,123.7008 C204.1288,123.846401 204.305199,123.980799 204.5684,124.104 C204.831601,124.227201 205.195598,124.350399 205.6604,124.4736 C206.125202,124.596801 206.732796,124.753599 207.4832,124.944 C207.707201,124.9888 208.017998,125.069999 208.4156,125.1876 C208.813202,125.305201 209.207998,125.492799 209.6,125.7504 C209.992002,126.008001 210.330799,126.352398 210.6164,126.7836 C210.902001,127.214802 211.0448,127.766397 211.0448,128.4384 C211.0448,128.987203 210.938401,129.496798 210.7256,129.9672 C210.512799,130.437602 210.196402,130.843598 209.7764,131.1852 C209.356398,131.526802 208.835603,131.792799 208.214,131.9832 C207.592397,132.173601 206.872804,132.2688 206.0552,132.2688 C205.394397,132.2688 204.753203,132.187601 204.1316,132.0252 C203.509997,131.862799 202.961202,131.608002 202.4852,131.2608 C202.009198,130.913598 201.631201,130.471203 201.3512,129.9336 C201.071199,129.395997 200.9368,128.757604 200.948,128.0184 L203.5016,128.0184 Z M215.3316,122.2224 L211.7364,122.2224 L211.7364,120.0048 L221.5644,120.0048 L221.5644,122.2224 L217.9692,122.2224 L217.9692,132 L215.3316,132 L215.3316,122.2224 Z M224.4904,127.3632 L227.5984,127.3632 L226.0864,122.9616 L226.0528,122.9616 L224.4904,127.3632 Z M224.7424,120.0048 L227.4472,120.0048 L231.9328,132 L229.1944,132 L228.2872,129.3288 L223.8016,129.3288 L222.8608,132 L220.2064,132 L224.7424,120.0048 Z M233.0444,120.0048 L235.682,120.0048 L235.682,129.7824 L241.5284,129.7824 L241.5284,132 L233.0444,132 L233.0444,120.0048 Z M246.1008,127.3632 L249.2088,127.3632 L247.6968,122.9616 L247.6632,122.9616 L246.1008,127.3632 Z M246.3528,120.0048 L249.0576,120.0048 L253.5432,132 L250.8048,132 L249.8976,129.3288 L245.412,129.3288 L244.4712,132 L241.8168,132 L246.3528,120.0048 Z M262.6516,124.0368 C262.6068,123.734398 262.506001,123.457201 262.3492,123.2052 C262.192399,122.953199 261.996401,122.732001 261.7612,122.5416 C261.525999,122.351199 261.260001,122.202801 260.9632,122.0964 C260.666398,121.989999 260.355602,121.9368 260.0308,121.9368 C259.437197,121.9368 258.933202,122.051599 258.5188,122.2812 C258.104398,122.510801 257.768401,122.818798 257.5108,123.2052 C257.253199,123.591602 257.065601,124.031198 256.948,124.524 C256.830399,125.016802 256.7716,125.526397 256.7716,126.0528 C256.7716,126.556803 256.830399,127.046798 256.948,127.5228 C257.065601,127.998802 257.253199,128.427198 257.5108,128.808 C257.768401,129.188802 258.104398,129.493999 258.5188,129.7236 C258.933202,129.953201 259.437197,130.068 260.0308,130.068 C260.837204,130.068 261.467198,129.821602 261.9208,129.3288 C262.374402,128.835998 262.651599,128.186404 262.7524,127.38 L265.306,127.38 C265.2388,128.130404 265.065201,128.807997 264.7852,129.4128 C264.505199,130.017603 264.135602,130.532798 263.6764,130.9584 C263.217198,131.384002 262.679603,131.708799 262.0636,131.9328 C261.447597,132.156801 260.770004,132.2688 260.0308,132.2688 C259.112395,132.2688 258.286404,132.109202 257.5528,131.79 C256.819196,131.470798 256.200402,131.031203 255.6964,130.4712 C255.192397,129.911197 254.806001,129.253204 254.5372,128.4972 C254.268399,127.741196 254.134,126.926404 254.134,126.0528 C254.134,125.156796 254.268399,124.325204 254.5372,123.558 C254.806001,122.790796 255.192397,122.121603 255.6964,121.5504 C256.200402,120.979197 256.819196,120.531202 257.5528,120.2064 C258.286404,119.881598 259.112395,119.7192 260.0308,119.7192 C260.691603,119.7192 261.315997,119.814399 261.904,120.0048 C262.492003,120.195201 263.018398,120.472398 263.4832,120.8364 C263.948002,121.200402 264.331598,121.651197 264.634,122.1888 C264.936401,122.726403 265.1268,123.342397 265.2052,124.0368 L262.6516,124.0368 Z M267.1736,120.0048 L269.8112,120.0048 L269.8112,132 L267.1736,132 L267.1736,120.0048 Z M274.3164,126.0528 C274.3164,126.556803 274.375199,127.046798 274.4928,127.5228 C274.610401,127.998802 274.797999,128.427198 275.0556,128.808 C275.313201,129.188802 275.649198,129.493999 276.0636,129.7236 C276.478002,129.953201 276.981997,130.068 277.5756,130.068 C278.169203,130.068 278.673198,129.953201 279.0876,129.7236 C279.502002,129.493999 279.837999,129.188802 280.0956,128.808 C280.353201,128.427198 280.540799,127.998802 280.6584,127.5228 C280.776001,127.046798 280.8348,126.556803 280.8348,126.0528 C280.8348,125.526397 280.776001,125.016802 280.6584,124.524 C280.540799,124.031198 280.353201,123.591602 280.0956,123.2052 C279.837999,122.818798 279.502002,122.510801 279.0876,122.2812 C278.673198,122.051599 278.169203,121.9368 277.5756,121.9368 C276.981997,121.9368 276.478002,122.051599 276.0636,122.2812 C275.649198,122.510801 275.313201,122.818798 275.0556,123.2052 C274.797999,123.591602 274.610401,124.031198 274.4928,124.524 C274.375199,125.016802 274.3164,125.526397 274.3164,126.0528 Z M271.6788,126.0528 C271.6788,125.156796 271.813199,124.325204 272.082,123.558 C272.350801,122.790796 272.737197,122.121603 273.2412,121.5504 C273.745202,120.979197 274.363996,120.531202 275.0976,120.2064 C275.831204,119.881598 276.657195,119.7192 277.5756,119.7192 C278.505205,119.7192 279.333996,119.881598 280.062,120.2064 C280.790004,120.531202 281.405997,120.979197 281.91,121.5504 C282.414002,122.121603 282.800399,122.790796 283.0692,123.558 C283.338001,124.325204 283.4724,125.156796 283.4724,126.0528 C283.4724,126.926404 283.338001,127.741196 283.0692,128.4972 C282.800399,129.253204 282.414002,129.911197 281.91,130.4712 C281.405997,131.031203 280.790004,131.470798 280.062,131.79 C279.333996,132.109202 278.505205,132.2688 277.5756,132.2688 C276.657195,132.2688 275.831204,132.109202 275.0976,131.79 C274.363996,131.470798 273.745202,131.031203 273.2412,130.4712 C272.737197,129.911197 272.350801,129.253204 272.082,128.4972 C271.813199,127.741196 271.6788,126.926404 271.6788,126.0528 Z M280.6164,115.956 L277.878,118.9296 L276.2148,118.9296 L277.9956,115.956 L280.6164,115.956 Z M285.34,120.0048 L287.9608,120.0048 L292.9672,128.052 L293.0008,128.052 L293.0008,120.0048 L295.4704,120.0048 L295.4704,132 L292.8328,132 L287.8432,123.9696 L287.8096,123.9696 L287.8096,132 L285.34,132 L285.34,120.0048 Z" id="INSTALACIÓN" fill="#003769"></path>
                        <g id="Group-7" stroke-width="1" fill="none">
                            <circle id="Oval-2" fill="#C6C6C6" cx="50" cy="50" r="50"></circle>
                            <g id="iconfinder_dropbox_306198" transform="translate(20.000000, 22.000000)" fill="#003769" fill-rule="nonzero">
                                <polygon id="Shape" points="30.02 34.7 18 44 12 40 12 46 30.02 56 48 46 48 40 42 44"></polygon>
                                <polygon id="Shape" points="60 30 42 42.084 30 32 48 22"></polygon>
                                <polygon id="Shape" points="18 0 0 12.166 12 22 30 10"></polygon>
                                <polygon id="Shape" points="60 12.084 42 0 30 10 48 22"></polygon>
                                <polygon id="Shape" points="0 30 18 42 30 32 12 22"></polygon>
                            </g>
                        </g>
                        <g id="Group-7" stroke-width="1" fill="none" transform="translate(185.000000, 0.000000)">
                            <circle id="Oval-2" fill="#C6C6C6" cx="50" cy="50" r="50"></circle>
                            <g id="key-(1)" transform="translate(22.000000, 31.000000)" fill="#003769" fill-rule="nonzero">
                                <path d="M53.9064254,26.722832 C50.7031859,28.482627 46.2974873,30.109918 41.9036704,30.7957746 C37.9945944,31.4060287 30.6404704,29.934418 30.6404704,28.1962008 C30.6404704,27.5375164 37.090462,29.8191762 40.991831,28.7827992 C43.9836085,27.9882541 43.5589183,25.2024713 41.9316085,24.8350082 C40.3137718,24.4694631 30.8352338,21.0126885 26.7866282,20.8934508 C24.8796169,20.8371885 20.1710958,21.5537336 17.8925408,21.9232746 C17.1120423,22.0497049 16.6226451,22.0356393 16.5738338,22.7791967 C16.3471183,26.2346926 15.9002704,33.3015246 15.6565352,36.9927787 C15.6515577,37.0707787 15.7602592,38.1197828 16.630031,37.3815 C17.5816901,36.5738484 18.9164535,35.6782869 20.1510254,35.957041 C22.0879014,36.3946721 38.8444563,39.4505779 41.1557662,38.9156066 C44.4624085,38.150791 53.8222901,32.6286148 55.616907,30.9122951 C58.3986676,28.2515041 56.2365211,25.4425451 53.9064254,26.722832 Z" id="Shape"></path>
                                <path d="M11.9500901,21.7885328 L3.17176901,21.3580943 C2.49403099,21.3246885 1.80184225,21.8332869 1.63341127,22.4874959 L0.0374112676,36.9133402 C-0.131019718,37.567709 0.286123944,38.1245779 0.964183099,38.150791 L10.6927183,38.149832 C11.370938,38.1757254 11.9679127,37.6460287 12.0199352,36.9726393 L13.0881634,23.0734549 C13.1398648,22.4000656 12.6278282,21.8216189 11.9500901,21.7885328 Z M6.78235775,36.2383525 C5.44181408,36.2383525 4.35528169,35.156582 4.35528169,33.8224303 C4.35528169,32.4877992 5.44197465,31.4061885 6.78235775,31.4061885 C8.12290141,31.4061885 9.2094338,32.487959 9.2094338,33.8224303 C9.2094338,35.1567418 8.12274085,36.2383525 6.78235775,36.2383525 Z" id="Shape"></path>
                                <path d="M52.0069606,14.7779631 L52.6307493,12.6903443 C53.01,11.4214057 52.284093,10.0864549 51.0090592,9.7087623 C49.7343465,9.33138934 48.3931606,10.0540082 48.0139099,11.3231066 L47.4015211,13.3725246 C47.4015211,13.3725246 47.3066282,13.8651393 46.7489915,13.7000287 C46.3665296,13.5867049 45.2196254,13.2470533 45.2196254,13.2470533 C45.2196254,13.2470533 44.6982761,13.1655369 44.8517746,12.6519836 C45.0759211,11.901873 45.7485211,9.65170082 45.7485211,9.65170082 C46.1277718,8.3827623 45.4018648,7.0474918 44.126831,6.67011885 C42.8519577,6.29242623 41.5109324,7.01504508 41.1315211,8.28446311 C41.1315211,8.28446311 40.4590817,10.5346352 40.2349352,11.2845861 C40.0783859,11.8080492 39.5610507,11.5714918 39.5610507,11.5714918 L32.8053465,9.57066393 C32.3308817,9.42984836 32.3230141,8.71378279 32.2889746,8.36102459 C31.9428,4.77494262 29.4656282,1.5777418 25.7896901,0.488778689 C20.9527183,-0.943831967 15.8466423,1.80806557 14.4075127,6.62312705 C12.9685437,11.4381885 15.7329634,16.5211352 20.5699352,17.9537459 C24.4135014,19.0919385 28.4251775,17.5869221 30.6335662,14.505123 C30.7453183,14.3489631 30.970107,14.0299303 31.4318873,14.16675 L50.5011972,19.813918 C51.7760704,20.1916107 53.1170958,19.4689918 53.496507,18.1995738 C53.8071972,17.1593607 53.3754423,16.074873 52.5074366,15.5095328 C52.3168479,15.3853402 51.9037183,15.1225697 52.0069606,14.7779631 Z M21.485307,14.8893689 C18.3454901,13.9594426 16.5510338,10.6602664 17.4851915,7.53435246 C18.4193493,4.4087582 21.7338592,2.62259016 24.8736761,3.55251639 C28.013493,4.48244262 29.8077887,7.78161885 28.873631,10.9075328 C27.9393127,14.033127 24.6251239,15.8192951 21.485307,14.8893689 Z" id="Shape"></path>
                            </g>
                        </g>
                    </g>
                </g>
            </g>
        </g>
    </g>
</svg>