<?xml version="1.0" encoding="UTF-8"?>
<svg width="80px" height="80px" viewBox="0 0 80 80" version="1.1" xmlns="http://www.w3.org/2000/svg" xmlns:xlink="http://www.w3.org/1999/xlink">
    <!-- Generator: Sketch 51.3 (57544) - http://www.bohemiancoding.com/sketch -->
    <title>iconfinder_whatsapp_287520</title>
    <desc>Created with Sketch.</desc>
    <defs></defs>
    <g id="Page-1" stroke="none" stroke-width="1" fill="none" fill-rule="evenodd">
        <g id="Desktop-HD" transform="translate(-1285.000000, -54.000000)" fill-rule="nonzero">
            <g id="iconfinder_whatsapp_287520" transform="translate(1285.000000, 54.000000)">
                <path d="M40,80 C62.0913911,80 80,62.0913911 80,40 C80,17.9086089 62.0913911,0 40,0 C17.9086089,0 0,17.9086089 0,40 C0,62.0913911 17.9086089,80 40,80 Z" id="Shape" fill="#57BB63"></path>
                <path d="M40.0950153,61.6280616 C36.2811077,61.6280616 32.6980923,60.6532923 29.5808,58.9425231 L17.5384616,62.7692308 L21.4641231,51.1891692 C19.4840616,47.9364923 18.3433847,44.1220923 18.3433847,40.0448 C18.3433847,28.1245539 28.0817231,18.4615384 40.0955077,18.4615384 C52.1078153,18.4615384 61.8461539,28.1245539 61.8461539,40.0448 C61.8461539,51.9650461 52.1083077,61.6280616 40.0950153,61.6280616 Z M40.0950153,21.8988308 C30.0105847,21.8988308 21.8077539,30.0391384 21.8077539,40.0448 C21.8077539,44.0152616 23.1020308,47.6923077 25.2908308,50.6840616 L23.0065231,57.4227692 L30.0337231,55.1891692 C32.9216,57.0850461 36.3805539,58.1907692 40.0950153,58.1907692 C50.1779692,58.1907692 58.3822769,50.0509539 58.3822769,40.0452923 C58.3822769,30.0396308 50.1779692,21.8988308 40.0950153,21.8988308 Z M51.0784,45.0156308 C50.9444923,44.7955692 50.5890461,44.6626461 50.0568616,44.3982769 C49.5232,44.1339077 46.9011692,42.8534153 46.4132923,42.6776616 C45.9239384,42.5014153 45.568,42.4123077 45.2130461,42.9420308 C44.8580923,43.4717539 43.8360616,44.6626461 43.5244308,45.0156308 C43.2132923,45.3691077 42.9026461,45.4134153 42.3694769,45.1485539 C41.8368,44.8841847 40.1186461,44.3254153 38.0814769,42.5230769 C36.4967384,41.1209847 35.4264616,39.3900308 35.1158153,38.8598153 C34.8046769,38.3305847 35.0828308,38.0445539 35.3496616,37.7811692 C35.5894153,37.5438769 35.8828308,37.1633231 36.1496616,36.8546461 C36.4164923,36.5454769 36.5051077,36.3254153 36.6823384,35.9719384 C36.8605539,35.6189539 36.7714461,35.3102769 36.6380308,35.0449231 C36.5046153,34.7805539 35.4377847,32.1772308 34.9937231,31.1177847 C34.5496616,30.0593231 34.1060923,30.2355692 33.7944616,30.2355692 C33.4833231,30.2355692 33.1278769,30.1912616 32.7724308,30.1912616 C32.4169847,30.1912616 31.8390153,30.3236923 31.3501539,30.8529231 C30.8617847,31.3826461 29.4848,32.6626461 29.4848,35.2654769 C29.4848,37.8688 31.3944616,40.384 31.6617847,40.7364923 C31.9281231,41.0889847 35.3491692,46.6048 40.7689847,48.7232 C46.1907692,50.8411077 46.1907692,50.1346461 47.1684923,50.0465231 C48.1447384,49.9584 50.3217231,48.7670153 50.7672616,47.5318153 C51.2108308,46.2956308 51.2108308,45.2361847 51.0784,45.0156308 Z" id="Shape" fill="#FFFFFF"></path>
            </g>
        </g>
    </g>
</svg>